<svg xmlns="http://www.w3.org/2000/svg" xmlns:xlink="http://www.w3.org/1999/xlink" width="200.816" height="44.076" viewBox="0 0 200.816 44.076"><defs><linearGradient id="a" y1="0.5" x2="1" y2="0.5" gradientUnits="objectBoundingBox"><stop offset="0" stop-color="#208dc4"/><stop offset="0.039" stop-color="#248ebb"/><stop offset="0.222" stop-color="#359599"/><stop offset="0.408" stop-color="#429b7f"/><stop offset="0.598" stop-color="#4c9e6c"/><stop offset="0.793" stop-color="#52a160"/><stop offset="1" stop-color="#54a25d"/></linearGradient></defs><g transform="translate(53.726 6.533)"><path d="M364,364.471h8.12v31.492H364Z" transform="translate(-363.999 -364.471)" fill="#fff"/><path d="M400.869,384.229v13.682H393.14V385.3c0-2.611-.981-3.907-2.926-3.907-2.41,0-3.8,1.684-3.8,4.539v11.982h-7.728V375.473h5.422l1.061,2.314a9.331,9.331,0,0,1,7.064-2.977C397.447,374.809,400.869,378.512,400.869,384.229Z" transform="translate(-366.768 -366.42)" fill="#fff"/><path d="M424.586,380h-5.032v16h-7.728V380h-3.711l-.017-6.071h3.823v-2.148c0-4.5,2.469-7.128,7.229-7.128h5.4v5.928h-3.414A1.677,1.677,0,0,0,419.3,372.4v1.524h5.286Z" transform="translate(-372.313 -364.505)" fill="#fff"/><path d="M428.495,385.831c0-6.956,5.265-11.955,12.58-11.955,7.292,0,12.581,5,12.581,11.955,0,6.932-5.289,11.955-12.581,11.955C433.76,397.785,428.495,392.762,428.495,385.831Zm12.58,5.012a5.015,5.015,0,1,0-4.84-5.012,4.722,4.722,0,0,0,4.84,5.012Z" transform="translate(-376.158 -366.244)" fill="#fff"/><path d="M477.081,375.5v7.073h-3c-2.736,0-3.882,1.2-3.882,4.062v11.41H462.47V375.6h5.178l1.206,2.49a7.492,7.492,0,0,1,6.18-2.6Z" transform="translate(-382.564 -366.549)" fill="#fff"/><path d="M492.989,397.792c-7.2,0-12.39-5.041-12.39-11.984s5.17-11.889,12.414-11.889c6.306,0,11.035,3.975,11.88,9.944h-7.528a4.556,4.556,0,0,0-4.376-3.019c-2.716,0-4.649,2.064-4.649,4.987s1.956,5.036,4.649,5.036a4.522,4.522,0,0,0,4.393-3.274h7.595a11.64,11.64,0,0,1-11.987,10.2Z" transform="translate(-385.982 -366.252)" fill="#fff"/><path d="M536.14,385.618a14.213,14.213,0,0,1-.16,2.047H519.319a4.359,4.359,0,0,0,4.581,3.9,4.5,4.5,0,0,0,4.056-2.1h7.691c-1.579,5.121-6.118,8.321-11.748,8.321a11.767,11.767,0,0,1-12.188-11.972c0-6.878,5.145-11.937,12.188-11.937,7.233,0,12.24,5.16,12.24,11.741Zm-16.685-2.233h9.071a4.508,4.508,0,0,0-4.626-3.453A4.344,4.344,0,0,0,519.455,383.385Z" transform="translate(-391.847 -366.244)" fill="#fff"/><g transform="translate(141.908 4.156)"><path d="M544.058,372.175a2.591,2.591,0,1,1-2.583-2.583A2.581,2.581,0,0,1,544.058,372.175Zm-.275,0a2.316,2.316,0,1,0-2.308,2.319A2.307,2.307,0,0,0,543.783,372.175Zm-1.9.161.721,1.212h-.3l-.712-1.2h-.672v1.2h-.278v-2.805h1.05a.819.819,0,0,1,.858.812A.779.779,0,0,1,541.886,372.336Zm-.96-.247h.76a.543.543,0,0,0,.594-.539.552.552,0,0,0-.594-.541h-.76Z" transform="translate(-538.877 -369.592)" fill="#fff"/></g></g><path d="M292.444,355.551a21.766,21.766,0,0,1,26.069,3.066,1.265,1.265,0,0,1-1.648,1.919c-7.007-6.342-16.947-7.168-24.619-1.732a19.353,19.353,0,0,0-7.8,20.545,4.843,4.843,0,0,0,5.482,3.872c2.824-.615,4.15-2.88,3.544-6.049-1.542-8.053,5.474-14.384,13.231-11.933.41.13.947.225,1.164.525a2.778,2.778,0,0,1,.19.305,1.389,1.389,0,0,1-.945,2.024.838.838,0,0,1-.432-.024c-4.281-1.582-8.3-.2-10.017,3.927a9.437,9.437,0,0,0-.344,4.864c.7,4.408-1.456,8.046-5.617,8.99-4.145.941-7.81-1.376-8.91-5.66C279.417,370.931,283.566,360.291,292.444,355.551Z" transform="translate(-281.135 -352.558)" fill="url(#a)"/><path d="M316.93,397.986a21.766,21.766,0,0,1-26.1-2.791,1.265,1.265,0,0,1,1.627-1.937c7.074,6.268,17.021,6.988,24.636,1.473a19.352,19.352,0,0,0,7.579-20.626,4.843,4.843,0,0,0-5.523-3.815c-2.817.646-4.119,2.923-3.479,6.086,1.627,8.036-5.323,14.441-13.1,12.072-.412-.125-.949-.215-1.169-.513a2.624,2.624,0,0,1-.193-.3,1.388,1.388,0,0,1,.924-2.034.843.843,0,0,1,.433.019c4.3,1.537,8.3.109,9.975-4.032a9.439,9.439,0,0,0,.292-4.867c-.745-4.4,1.371-8.06,5.521-9.049s7.824,1.293,8.969,5.565C329.8,382.47,325.758,393.152,316.93,397.986Z" transform="translate(-283.902 -357.02)" fill="url(#a)"/></svg>