<svg width="47" height="48" viewBox="0 0 47 48" fill="none" xmlns="http://www.w3.org/2000/svg">
<circle cx="23.9698" cy="24" r="23.0303" fill="black"/>
<path d="M16.6 15.2854C16.0807 15.2854 15.65 14.8547 15.65 14.3354V12.1187C15.65 11.5994 16.0807 11.1687 16.6 11.1687C17.1194 11.1687 17.55 11.5994 17.55 12.1187V14.3354C17.55 14.8674 17.1194 15.2854 16.6 15.2854Z" fill="white"/>
<path d="M21.6667 15.2854C21.1473 15.2854 20.7167 14.8547 20.7167 14.3354V12.1187C20.7167 11.5994 21.1473 11.1687 21.6667 11.1687C22.186 11.1687 22.6167 11.5994 22.6167 12.1187V14.3354C22.6167 14.8674 22.186 15.2854 21.6667 15.2854Z" fill="white"/>
<path d="M26.7333 15.2854C26.214 15.2854 25.7833 14.8547 25.7833 14.3354V12.1187C25.7833 11.5994 26.214 11.1687 26.7333 11.1687C27.2527 11.1687 27.6833 11.5994 27.6833 12.1187V14.3354C27.6833 14.8674 27.2527 15.2854 26.7333 15.2854Z" fill="white"/>
<path d="M37.1833 25.5835C37.1833 22.2648 34.612 19.5795 31.3693 19.3008C30.432 17.7682 28.76 16.7295 26.8346 16.7295H17.4993C14.5606 16.7295 12.1666 19.1235 12.1666 22.0622V22.7335H32.1673V22.0622C32.1673 21.8215 32.1293 21.5808 32.0913 21.3528C33.928 21.8975 35.2833 23.5695 35.2833 25.5835C35.2833 27.5722 33.966 29.2315 32.1673 29.7888V24.0002H12.1666V31.3342C12.1666 34.2728 14.5606 36.6668 17.4993 36.6668H26.8346C29.6213 36.6668 31.8886 34.5135 32.1166 31.7775C35.0046 31.1948 37.1833 28.6362 37.1833 25.5835Z" fill="white"/>
</svg>
