<svg width="48" height="47" viewBox="0 0 48 47" fill="none" xmlns="http://www.w3.org/2000/svg">
<circle cx="24" cy="23.9695" r="23.0303" fill="black"/>
<path d="M23.0501 32.117H20.2001C18.8067 32.117 17.6667 33.257 17.6667 34.6503V34.967H16.4001C15.8807 34.967 15.4501 35.3976 15.4501 35.917C15.4501 36.4363 15.8807 36.867 16.4001 36.867H31.6001C32.1194 36.867 32.5501 36.4363 32.5501 35.917C32.5501 35.3976 32.1194 34.967 31.6001 34.967H30.3334V34.6503C30.3334 33.257 29.1934 32.117 27.8001 32.117H24.9501V29.2163C24.6334 29.2543 24.3167 29.267 24.0001 29.267C23.6834 29.267 23.3667 29.2543 23.0501 29.2163V32.117Z" fill="white"/>
<path d="M32.208 23.7444C33.044 23.4277 33.7787 22.9084 34.3613 22.3257C35.5393 21.021 36.312 19.463 36.312 17.639C36.312 15.815 34.8807 14.3837 33.0567 14.3837H32.3473C31.524 12.699 29.8013 11.5337 27.8 11.5337H20.2C18.1987 11.5337 16.476 12.699 15.6527 14.3837H14.9433C13.1193 14.3837 11.688 15.815 11.688 17.639C11.688 19.463 12.4607 21.021 13.6387 22.3257C14.2213 22.9084 14.956 23.4277 15.792 23.7444C17.1093 26.987 20.276 29.267 24 29.267C27.724 29.267 30.8907 26.987 32.208 23.7444ZM27.5973 19.7037L26.812 20.6664C26.6853 20.8057 26.5967 21.0844 26.6093 21.2744L26.6853 22.5157C26.736 23.2757 26.1913 23.6684 25.482 23.3897L24.3293 22.9337C24.152 22.8704 23.848 22.8704 23.6707 22.9337L22.518 23.3897C21.8087 23.6684 21.264 23.2757 21.3147 22.5157L21.3907 21.2744C21.4033 21.0844 21.3147 20.8057 21.188 20.6664L20.4027 19.7037C19.9087 19.121 20.124 18.475 20.8587 18.285L22.062 17.981C22.252 17.9304 22.48 17.753 22.5813 17.5884L23.2527 16.5497C23.6707 15.9037 24.3293 15.9037 24.7473 16.5497L25.4187 17.5884C25.52 17.753 25.748 17.9304 25.938 17.981L27.1413 18.285C27.876 18.475 28.0913 19.121 27.5973 19.7037Z" fill="white"/>
</svg>
