<svg width="108" height="108" viewBox="0 0 108 108" fill="none" xmlns="http://www.w3.org/2000/svg">
<circle cx="54.3343" cy="54.3339" r="48.644" fill="white" stroke="black"/>
<path d="M68.7779 40.7V41.1813H58.4894C52.5329 41.1813 49.7652 43.949 49.7652 49.9055V60.1538H48.2209V67.2736H49.7652V70.2819H38.5942C37.772 70.2819 37.0901 69.6 37.0901 68.7777C37.0901 67.9555 37.772 67.2736 38.5942 67.2736H45.2126V60.1538H40.7001C34.4227 60.1538 32.738 58.6096 32.6779 52.5327V40.7C32.6779 34.2822 34.2823 32.6777 40.7001 32.6777H60.7556C67.1734 32.6777 68.7779 34.2822 68.7779 40.7Z" fill="#292D32"/>
<path d="M68.7779 44.2897C68.2765 44.2296 67.6949 44.1895 67.0732 44.1895H58.4894C54.1975 44.1895 52.7736 45.6134 52.7736 49.9053V67.2734C52.7936 68.5168 52.934 69.4996 53.2348 70.2817C53.9368 72.1068 55.5212 72.7887 58.4894 72.7887H67.0732C71.3651 72.7887 72.789 71.3647 72.789 67.0728V49.9053C72.789 46.2351 71.7461 44.6708 68.7779 44.2897ZM62.7813 48.9025C64.5261 48.9025 65.93 50.3064 65.93 52.0512C65.93 53.7961 64.5261 55.2 62.7813 55.2C61.0364 55.2 59.6326 53.7961 59.6326 52.0512C59.6326 50.3064 61.0364 48.9025 62.7813 48.9025ZM62.7813 67.0728C60.4147 67.0728 58.4894 65.1475 58.4894 62.781C58.4894 61.7982 58.8303 60.8757 59.3919 60.1537C60.1741 59.1509 61.3974 58.4891 62.7813 58.4891C63.8643 58.4891 64.847 58.8902 65.5891 59.532C66.4916 60.3342 67.0732 61.4974 67.0732 62.781C67.0732 65.1475 65.1478 67.0728 62.7813 67.0728Z" fill="#292D32"/>
<path d="M68.7779 44.2897C68.2765 44.2296 67.6949 44.1895 67.0732 44.1895H58.4894C54.1975 44.1895 52.7736 45.6134 52.7736 49.9053V67.2734C52.7936 68.5168 52.934 69.4996 53.2348 70.2817C53.9368 72.1068 55.5212 72.7887 58.4894 72.7887H67.0732C71.3651 72.7887 72.789 71.3647 72.789 67.0728V49.9053C72.789 46.2351 71.7461 44.6708 68.7779 44.2897ZM62.7813 48.9025C64.5261 48.9025 65.93 50.3064 65.93 52.0512C65.93 53.7961 64.5261 55.2 62.7813 55.2C61.0364 55.2 59.6326 53.7961 59.6326 52.0512C59.6326 50.3064 61.0364 48.9025 62.7813 48.9025ZM62.7813 67.0728C60.4147 67.0728 58.4894 65.1475 58.4894 62.781C58.4894 61.7982 58.8303 60.8757 59.3919 60.1537C60.1741 59.1509 61.3974 58.4891 62.7813 58.4891C63.8643 58.4891 64.847 58.8902 65.5891 59.532C66.4916 60.3342 67.0732 61.4974 67.0732 62.781C67.0732 65.1475 65.1478 67.0728 62.7813 67.0728Z" fill="#292D32"/>
<circle cx="5.12605" cy="54.3343" r="4.326" fill="black"/>
<circle cx="103.543" cy="54.3343" r="4.326" fill="black"/>
<circle cx="54.3343" cy="5.1258" r="4.326" fill="black"/>
<circle cx="54.3343" cy="103.542" r="4.326" fill="black"/>
</svg>
