<svg width="47" height="48" viewBox="0 0 47 48" fill="none" xmlns="http://www.w3.org/2000/svg">
<circle cx="23.0303" cy="24" r="23.0303" fill="black"/>
<path d="M28.69 16.0454H16.91C13.1733 16.0454 10.1333 19.0854 10.1333 22.8221V29.8901C10.1333 33.6267 13.1733 36.6667 16.91 36.6667H28.69C32.4266 36.6667 35.4666 33.6267 35.4666 29.8901V22.8221C35.4666 19.0854 32.4266 16.0454 28.69 16.0454ZM25.9666 24.0254C25.9666 23.3287 26.5366 22.7587 27.2333 22.7587C27.93 22.7587 28.5 23.3287 28.5 24.0254C28.5 24.7221 27.93 25.3047 27.2333 25.3047C26.5366 25.3047 25.9666 24.7474 25.9666 24.0507V24.0254ZM20.4313 29.1554C20.2413 29.3454 20.0006 29.4341 19.76 29.4341C19.5193 29.4341 19.2786 29.3454 19.0886 29.1554L17.784 27.8507L16.53 29.1047C16.34 29.2947 16.0993 29.3834 15.8586 29.3834C15.618 29.3834 15.3773 29.2947 15.1873 29.1047C14.82 28.7374 14.82 28.1294 15.1873 27.7621L16.4413 26.5081L15.2253 25.2921C14.858 24.9247 14.858 24.3167 15.2253 23.9494C15.5926 23.5821 16.2006 23.5821 16.568 23.9494L17.784 25.1654L19.038 23.9114C19.4053 23.5441 20.0133 23.5441 20.3806 23.9114C20.748 24.2787 20.748 24.8867 20.3806 25.2541L19.1266 26.5081L20.4313 27.8127C20.7986 28.1801 20.7986 28.7881 20.4313 29.1554ZM24.7506 27.8001C24.054 27.8001 23.4713 27.2301 23.4713 26.5334C23.4713 25.8367 24.0286 25.2667 24.7253 25.2667H24.7506C25.4473 25.2667 26.0173 25.8367 26.0173 26.5334C26.0173 27.2301 25.46 27.8001 24.7506 27.8001ZM27.2333 30.2954C26.5366 30.2954 25.9666 29.7381 25.9666 29.0414V29.0161C25.9666 28.3194 26.5366 27.7494 27.2333 27.7494C27.93 27.7494 28.5 28.3194 28.5 29.0161C28.5 29.7127 27.9426 30.2954 27.2333 30.2954ZM29.7413 27.8001C29.0446 27.8001 28.462 27.2301 28.462 26.5334C28.462 25.8367 29.0193 25.2667 29.716 25.2667H29.7413C30.438 25.2667 31.008 25.8367 31.008 26.5334C31.008 27.2301 30.4506 27.8001 29.7413 27.8001Z" fill="white"/>
<path d="M24.8773 12.2328L24.8647 13.4235C24.852 14.5382 23.9273 15.4628 22.8 15.4628C22.61 15.4628 22.496 15.5895 22.496 15.7542C22.496 15.9188 22.6227 16.0455 22.7873 16.0455H20.748C20.7353 15.9568 20.7227 15.8555 20.7227 15.7542C20.7227 14.6142 21.6473 13.6895 22.7747 13.6895C22.9647 13.6895 23.0913 13.5628 23.0913 13.3982L23.104 12.2075C23.1167 11.7262 23.5093 11.3335 23.9907 11.3335H24.0033C24.4973 11.3335 24.8773 11.7388 24.8773 12.2328Z" fill="white"/>
</svg>
