<svg width="48" height="47" viewBox="0 0 48 47" fill="none" xmlns="http://www.w3.org/2000/svg">
<circle cx="24" cy="23.0303" r="23.0303" fill="black"/>
<path d="M35.7167 30.9954L33.6267 31.4894C33.158 31.6034 32.7907 31.9581 32.6893 32.4267L32.246 34.2887C32.0053 35.3021 30.7133 35.6187 30.042 34.8207L26.2547 30.4634C25.9507 30.1087 26.1153 29.5514 26.5713 29.4374C28.8133 28.8927 30.8273 27.6387 32.3093 25.8527C32.55 25.5614 32.9807 25.5234 33.2467 25.7894L36.0587 28.6014C37.0213 29.5641 36.6793 30.7674 35.7167 30.9954Z" fill="white"/>
<path d="M12.22 30.9954L14.31 31.4894C14.7787 31.6034 15.146 31.9581 15.2473 32.4267L15.6907 34.2887C15.9313 35.3021 17.2233 35.6187 17.8947 34.8207L21.682 30.4634C21.986 30.1087 21.8213 29.5514 21.3653 29.4374C19.1233 28.8927 17.1093 27.6387 15.6273 25.8527C15.3867 25.5614 14.956 25.5234 14.69 25.7894L11.878 28.6014C10.9153 29.5641 11.2573 30.7674 12.22 30.9954Z" fill="white"/>
<path d="M24.0001 10.1335C19.0981 10.1335 15.1334 14.0982 15.1334 19.0002C15.1334 20.8369 15.6781 22.5215 16.6154 23.9275C17.9834 25.9542 20.1494 27.3855 22.6701 27.7529C23.1008 27.8289 23.5441 27.8669 24.0001 27.8669C24.4561 27.8669 24.8994 27.8289 25.3301 27.7529C27.8508 27.3855 30.0168 25.9542 31.3848 23.9275C32.3221 22.5215 32.8668 20.8369 32.8668 19.0002C32.8668 14.0982 28.9021 10.1335 24.0001 10.1335ZM27.8761 18.7215L26.8248 19.7729C26.6474 19.9502 26.5461 20.2922 26.6094 20.5455L26.9134 21.8502C27.1541 22.8762 26.6094 23.2815 25.6974 22.7369L24.4308 21.9895C24.2028 21.8502 23.8228 21.8502 23.5948 21.9895L22.3281 22.7369C21.4161 23.2689 20.8714 22.8762 21.1121 21.8502L21.4161 20.5455C21.4668 20.3049 21.3781 19.9502 21.2008 19.7729L20.1241 18.7215C19.5034 18.1009 19.7061 17.4802 20.5674 17.3409L21.9228 17.1129C22.1508 17.0749 22.4168 16.8722 22.5181 16.6695L23.2654 15.1749C23.6708 14.3642 24.3294 14.3642 24.7348 15.1749L25.4821 16.6695C25.5834 16.8722 25.8494 17.0749 26.0901 17.1129L27.4454 17.3409C28.2941 17.4802 28.4968 18.1009 27.8761 18.7215Z" fill="white"/>
</svg>
