<svg width="108" height="108" viewBox="0 0 108 108" fill="none" xmlns="http://www.w3.org/2000/svg">
<circle cx="54.0676" cy="54.0673" r="48.644" fill="white" stroke="black"/>
<circle cx="4.85932" cy="54.0675" r="4.326" fill="black"/>
<circle cx="103.276" cy="54.0675" r="4.326" fill="black"/>
<circle cx="54.0676" cy="4.85945" r="4.326" fill="black"/>
<circle cx="54.0676" cy="103.276" r="4.326" fill="black"/>
<path d="M56.1 53.4524C55.2978 53.4524 54.5758 53.0112 54.2348 52.2892L51.3268 46.4931L50.4844 48.0575C50.0232 48.9199 49.1006 49.4614 48.1179 49.4614H46.6538C45.8315 49.4614 45.1497 48.7795 45.1497 47.9572C45.1497 47.1349 45.8315 46.453 46.6538 46.453H47.9374L49.5218 43.5249C49.9028 42.843 50.6649 42.3817 51.3869 42.4219C52.1691 42.4219 52.871 42.8831 53.232 43.565L56.1 49.3009L56.7819 47.9171C57.2432 46.9945 58.1457 46.433 59.1885 46.433H60.813C61.6353 46.433 62.3172 47.1149 62.3172 47.9371C62.3172 48.7594 61.6353 49.4413 60.813 49.4413H59.3891L57.9652 52.2691C57.6042 53.0112 56.9022 53.4524 56.1 53.4524Z" fill="#292D32"/>
<path d="M35.182 67.0701C34.3598 67.0701 33.6779 66.3882 33.6779 65.5659V54.1342C33.5776 48.6992 35.6032 43.5649 39.3736 39.7143C43.1441 35.8837 48.1981 33.7778 53.6331 33.7778C64.7439 33.7778 73.789 42.8229 73.789 53.9337V65.3653C73.789 66.1876 73.1071 66.8695 72.2848 66.8695C71.4625 66.8695 70.7807 66.1876 70.7807 65.3653V53.9337C70.7807 44.4875 63.0994 36.7862 53.6331 36.7862C49.0003 36.7862 44.7084 38.5711 41.5196 41.8201C38.3107 45.0892 36.606 49.4412 36.6862 54.0941V65.5458C36.6862 66.3882 36.0244 67.0701 35.182 67.0701Z" fill="#292D32"/>
<path d="M41.5797 54.6357H41.319C37.1074 54.6357 33.6779 58.0652 33.6779 62.2769V66.0474C33.6779 70.259 37.1074 73.6885 41.319 73.6885H41.5797C45.7914 73.6885 49.2209 70.259 49.2209 66.0474V62.2769C49.2209 58.0652 45.7914 54.6357 41.5797 54.6357Z" fill="#292D32"/>
<path d="M66.1479 54.6357H65.8871C61.6755 54.6357 58.246 58.0652 58.246 62.2769V66.0474C58.246 70.259 61.6755 73.6885 65.8871 73.6885H66.1479C70.3595 73.6885 73.789 70.259 73.789 66.0474V62.2769C73.789 58.0652 70.3595 54.6357 66.1479 54.6357Z" fill="#292D32"/>
</svg>
